# xmcd
#
# Track frame offsets:
#	150
#	18766
#	37737
#	59188
#
# Disc length: 1035 seconds
#
# Revision: 0
# Processed by: cddbd v1.5.1PL0 Copyright (c) Steve Scherf et al.
# Submitted via: audiograbber 1.83.01
#
DISCID=29040904
DTITLE=earthlings - disco marching kraft ep
DYEAR=2002
DGENRE=Progressive Rock
TTITLE0=disco marching kraft
TTITLE1=waterhead
TTITLE2=gentle grace
TTITLE3=family ford
EXTD=
EXTT0=
EXTT1=
EXTT2=
EXTT3=
PLAYORDER=
